<svg version="1.1" viewBox="0 0 507.9 113.39" xml:space="preserve" xmlns="http://www.w3.org/2000/svg"><defs><clipPath id="clipPath18"><path d="M 0,255.118 H 550.024 V 0 H 0 Z"/></clipPath></defs><g transform="matrix(1.3333 0 0 -1.3333 -112.73 226.77)"><g clip-path="url(#clipPath18)"><g transform="translate(133.14 109.34)"><path d="m0 0v36.446l31.562-18.223zm70.353 47.464c-1.398 5.226-5.514 9.343-10.741 10.74-9.474 2.539-47.464 2.539-47.464 2.539s-37.989 0-47.463-2.539c-5.227-1.397-9.343-5.514-10.74-10.74-2.539-9.474-2.539-29.241-2.539-29.241s0-19.767 2.539-29.241c1.397-5.226 5.513-9.343 10.74-10.74 9.474-2.539 47.463-2.539 47.463-2.539s37.99 0 47.464 2.539c5.227 1.397 9.343 5.514 10.741 10.74 2.538 9.474 2.538 29.241 2.538 29.241s0 19.767-2.538 29.241" fill="#fff"/></g><g transform="translate(274.35 101.06)"><path d="m0 0c0.665 1.736 0.999 4.574 0.999 8.513v16.594c0 3.822-0.334 6.616-0.999 8.383-0.667 1.766-1.84 2.65-3.519 2.65-1.622 0-2.766-0.884-3.431-2.65-0.667-1.767-0.999-4.561-0.999-8.383v-16.594c0-3.939 0.317-6.777 0.955-8.513 0.637-1.738 1.795-2.606 3.475-2.606 1.679 0 2.852 0.868 3.519 2.606m-13.466-8.341c-2.404 1.62-4.113 4.141-5.125 7.559-1.014 3.416-1.521 7.963-1.521 13.639v7.732c0 5.734 0.578 10.339 1.738 13.813 1.157 3.475 2.967 6.009 5.429 7.602 2.461 1.592 5.691 2.389 9.687 2.389 3.938 0 7.094-0.811 9.469-2.433 2.375-1.621 4.112-4.156 5.213-7.601 1.099-3.446 1.651-8.036 1.651-13.77v-7.732c0-5.676-0.536-10.238-1.607-13.683-1.072-3.446-2.81-5.966-5.213-7.558-2.404-1.593-5.662-2.389-9.774-2.389-4.228 0-7.544 0.811-9.947 2.432" fill="#fff"/></g><g transform="translate(446.93 136.2)"><path d="m0 0c-0.607-0.753-1.014-1.984-1.216-3.692-0.204-1.709-0.304-4.3-0.304-7.775v-3.823h8.774v3.823c0 3.416-0.116 6.008-0.347 7.775-0.232 1.766-0.651 3.011-1.26 3.735-0.608 0.725-1.549 1.087-2.823 1.087-1.275 0-2.216-0.378-2.824-1.13m-1.52-22.414v-2.693c0-3.418 0.1-5.981 0.304-7.689 0.202-1.709 0.621-2.954 1.26-3.736 0.637-0.781 1.62-1.173 2.954-1.173 1.794 0 3.025 0.695 3.691 2.086 0.665 1.39 1.028 3.706 1.086 6.95l10.339-0.608c0.058-0.465 0.087-1.102 0.087-1.911 0-4.924-1.347-8.602-4.04-11.035-2.692-2.431-6.502-3.648-11.424-3.648-5.907 0-10.049 1.852-12.424 5.56-2.376 3.706-3.562 9.44-3.562 17.202v9.296c0 7.993 1.23 13.827 3.693 17.506 2.461 3.677 6.675 5.516 12.641 5.516 4.111 0 7.268-0.753 9.469-2.258 2.2-1.507 3.75-3.853 4.648-7.037 0.898-3.186 1.347-7.589 1.347-13.206v-9.122z" fill="#fff"/></g><g transform="translate(231.69 114.78)"><path d="m0 0-13.64 49.26h11.902l4.778-22.328c1.217-5.503 2.114-10.194 2.693-14.074h0.348c0.405 2.78 1.303 7.442 2.693 13.987l4.952 22.415h11.902l-13.813-49.26v-23.632h-11.815z" fill="#fff"/></g><g transform="translate(326.14 144.41)"><path d="m0 0v-53.255h-9.383l-1.043 6.515h-0.26c-2.549-4.923-6.372-7.384-11.468-7.384-3.533 0-6.139 1.158-7.819 3.475-1.68 2.316-2.519 5.937-2.519 10.859v39.79h11.989v-39.094c0-2.376 0.261-4.07 0.782-5.082 0.521-1.015 1.389-1.521 2.606-1.521 1.043 0 2.042 0.318 2.997 0.956 0.956 0.637 1.665 1.447 2.129 2.432v42.309z" fill="#fff"/></g><g transform="translate(387.63 144.41)"><path d="m0 0v-53.255h-9.383l-1.043 6.515h-0.26c-2.55-4.923-6.372-7.384-11.468-7.384-3.533 0-6.139 1.158-7.819 3.475-1.68 2.316-2.519 5.937-2.519 10.859v39.79h11.989v-39.094c0-2.376 0.26-4.07 0.781-5.082 0.522-1.015 1.39-1.521 2.607-1.521 1.043 0 2.042 0.318 2.997 0.956 0.956 0.637 1.664 1.447 2.129 2.432v42.309z" fill="#fff"/></g><g transform="translate(358.71 154.4)"><path d="m0 0h-11.902v-63.247h-11.728v63.247h-11.902v9.644h35.532z" fill="#fff"/></g><g transform="translate(416.32 114.17)"><path d="m0 0c0-3.881-0.16-6.922-0.479-9.122-0.318-2.202-0.854-3.766-1.607-4.691-0.753-0.927-1.768-1.39-3.04-1.39-0.985 0-1.897 0.23-2.736 0.695-0.841 0.463-1.521 1.157-2.042 2.085v30.233c0.404 1.447 1.099 2.635 2.085 3.562 0.984 0.925 2.054 1.39 3.214 1.39 1.216 0 2.157-0.478 2.824-1.433 0.665-0.956 1.129-2.563 1.389-4.823 0.261-2.258 0.392-5.472 0.392-9.642zm10.989 21.723c-0.724 3.358-1.897 5.791-3.518 7.298-1.622 1.504-3.853 2.258-6.69 2.258-2.201 0-4.257-0.623-6.168-1.868s-3.388-2.882-4.43-4.909h-0.088l1e-3 28.062h-11.555v-75.583h9.903l1.217 5.039h0.261c0.926-1.795 2.315-3.214 4.17-4.257 1.852-1.042 3.909-1.564 6.169-1.564 4.052 0 7.036 1.868 8.947 5.604s2.867 9.57 2.867 17.506v8.426c0 5.965-0.362 10.628-1.086 13.988" fill="#fff"/></g></g></g></svg>
